<svg height="511pt" viewBox="-4 0 511 511.87662" width="511pt" xmlns="http://www.w3.org/2000/svg"><path d="m173.996094 69.300781v13.015625c0 4.792969-3.882813 8.679688-8.675782 8.679688-4.792968 0-8.679687-3.886719-8.679687-8.679688v-13.015625c0-5.386719-.820313-10.742187-2.429687-15.882812-7.761719-24.515625-32.261719-39.691407-57.667969-35.722657-25.410157 3.964844-44.117188 25.890626-44.035157 51.605469v182.238281c0 4.792969-3.886718 8.675782-8.679687 8.675782s-8.675781-3.882813-8.675781-8.675782v-182.238281c.0625-35.03125 26.214844-64.523437 60.984375-68.78125 34.769531-4.257812 67.261719 18.054688 75.777343 52.03125 1.410157 5.472657 2.109376 11.101563 2.082032 16.75zm0 0" fill="#95a5a5"/><path d="m52.507812 234.183594v17.355468c0 4.792969-3.886718 8.675782-8.679687 8.675782s-8.675781-3.882813-8.675781-8.675782v-17.355468zm0 0" fill="#7f8c8d"/><path d="m173.996094 69.300781v13.015625c0 4.792969-3.882813 8.679688-8.675782 8.679688-4.792968 0-8.679687-3.886719-8.679687-8.679688v-13.015625c0-5.386719-.820313-10.742187-2.429687-15.882812 3.625-.972657 7.359374-1.46875 11.109374-1.472657 2.210938-.019531 4.421876.183594 6.59375.605469 1.410157 5.472657 2.109376 11.101563 2.082032 16.75zm0 0" fill="#7f8c8d"/><g fill="#2fa8cc"><path d="m165.320312 173.4375c-4.792968 0-8.679687-3.886719-8.679687-8.679688v-8.679687c0-4.789063 3.886719-8.675781 8.679687-8.675781 4.792969 0 8.675782 3.886718 8.675782 8.675781v8.679687c0 4.792969-3.882813 8.679688-8.675782 8.679688zm0 0"/><path d="m165.320312 216.824219c-4.792968 0-8.679687-3.882813-8.679687-8.675781v-8.679688c0-4.792969 3.886719-8.675781 8.679687-8.675781 4.792969 0 8.675782 3.882812 8.675782 8.675781v8.679688c0 4.792968-3.882813 8.675781-8.675782 8.675781zm0 0"/><path d="m134.945312 161.035156c-3.492187 0-6.644531-2.097656-7.996093-5.316406-1.355469-3.222656-.644531-6.941406 1.800781-9.4375l6.074219-6.203125c3.355469-3.425781 8.851562-3.480469 12.277343-.125 3.421876 3.355469 3.480469 8.847656.125 12.273437l-6.074218 6.195313c-1.632813 1.671875-3.871094 2.613281-6.207032 2.613281zm0 0"/><path d="m104.574219 192.023438c-3.492188 0-6.648438-2.09375-8-5.316407-1.351563-3.222656-.640625-6.941406 1.804687-9.433593l6.074219-6.199219c3.355469-3.421875 8.851563-3.480469 12.273437-.125 3.425782 3.355469 3.480469 8.851562.125 12.277343l-6.074218 6.203126c-1.632813 1.664062-3.871094 2.597656-6.203125 2.59375zm0 0"/><path d="m195.691406 161.035156c-2.328125 0-4.5625-.9375-6.195312-2.601562l-6.074219-6.199219c-3.355469-3.421875-3.296875-8.917969.125-12.273437 3.425781-3.355469 8.921875-3.296876 12.277344.125l6.074219 6.207031c2.445312 2.492187 3.15625 6.210937 1.800781 9.433593-1.351563 3.222657-4.503907 5.316407-7.996094 5.316407zm0 0"/><path d="m226.066406 192.023438c-2.332031 0-4.566406-.9375-6.195312-2.601563l-6.074219-6.207031c-3.355469-3.421875-3.300781-8.917969.125-12.273438 3.421875-3.355468 8.917969-3.300781 12.273437.125l6.074219 6.195313c2.445313 2.496093 3.15625 6.214843 1.804688 9.4375-1.351563 3.21875-4.507813 5.316406-8 5.316406zm0 0"/></g><path d="m486.40625 286.25v78.101562c0 62.304688-50.511719 112.8125-112.816406 112.8125h-242.980469c-62.304687 0-112.816406-50.507812-112.816406-112.8125v-78.101562zm0 0" fill="#e6e7e8"/><path d="m425.660156 286.25h60.746094c9.570312-.027344 17.324219-7.78125 17.355469-17.355469-.070313-9.558593-7.800781-17.285156-17.355469-17.355469h-468.613281c-9.570313.027344-17.324219 7.78125-17.355469 17.355469-.023438 4.601563 1.824219 9.019531 5.121094 12.234375 3.214844 3.296875 7.632812 5.144532 12.234375 5.121094zm0 0" fill="#ecf0f1"/><path d="m130.609375 477.164062h34.710937v17.355469c0 9.585938-7.769531 17.355469-17.355468 17.355469-9.585938 0-17.355469-7.769531-17.355469-17.355469zm0 0" fill="#bdc3c7"/><path d="m338.878906 477.164062h34.710938v17.355469c0 9.585938-7.769532 17.355469-17.355469 17.355469s-17.355469-7.769531-17.355469-17.355469zm0 0" fill="#bdc3c7"/><path d="m156.640625 451.128906h-26.03125c-47.90625-.050781-86.726563-38.871094-86.78125-86.777344 0-4.792968 3.886719-8.679687 8.679687-8.679687 4.792969 0 8.675782 3.886719 8.675782 8.679687.042968 38.324219 31.101562 69.378907 69.425781 69.421876h26.03125c4.792969 0 8.679687 3.886718 8.679687 8.679687s-3.886718 8.675781-8.679687 8.675781zm0 0" fill="#ecf0f1"/><path d="m52.507812 338.316406c-4.792968 0-8.679687-3.882812-8.679687-8.675781v-8.679687c0-4.792969 3.886719-8.675782 8.679687-8.675782 4.792969 0 8.675782 3.882813 8.675782 8.675782v8.679687c0 4.792969-3.882813 8.675781-8.675782 8.675781zm0 0" fill="#ecf0f1"/><path d="m312.84375 407.742188c-4.792969 0-8.675781-3.886719-8.675781-8.679688v-34.710938c0-4.792968 3.882812-8.679687 8.675781-8.679687s8.679688 3.886719 8.679688 8.679687v34.710938c0 4.792969-3.886719 8.679688-8.679688 8.679688zm0 0" fill="#c03a2b"/><path d="m347.558594 407.742188c-4.792969 0-8.679688-3.886719-8.679688-8.679688v-26.035156c0-4.789063 3.886719-8.675782 8.679688-8.675782 4.792968 0 8.675781 3.886719 8.675781 8.675782v26.035156c0 4.792969-3.882813 8.679688-8.675781 8.679688zm0 0" fill="#c03a2b"/><path d="m382.269531 407.742188c-4.792969 0-8.679687-3.886719-8.679687-8.679688v-26.035156c0-4.789063 3.886718-8.675782 8.679687-8.675782s8.675781 3.886719 8.675781 8.675782v26.035156c0 4.792969-3.882812 8.679688-8.675781 8.679688zm0 0" fill="#c03a2b"/><path d="m416.980469 407.742188c-4.792969 0-8.675781-3.886719-8.675781-8.679688v-30.371094c0-4.792968 3.882812-8.679687 8.675781-8.679687s8.679687 3.886719 8.679687 8.679687v30.371094c0 4.792969-3.886718 8.679688-8.679687 8.679688zm0 0" fill="#c03a2b"/><path d="m443.015625 216.824219-17.355469 34.714843v112.8125c0 4.792969-3.886718 8.675782-8.679687 8.675782h-104.136719c-4.792969 0-8.675781-3.882813-8.675781-8.675782v-130.167968c.027343-9.574219 7.78125-17.328125 17.355469-17.359375zm0 0" fill="#e64c3c"/><path d="m460.371094 251.539062v-17.355468c0-9.585938-7.769532-17.359375-17.355469-17.359375s-17.355469 7.773437-17.355469 17.359375v17.355468zm0 0" fill="#c03a2b"/><path d="m425.660156 329.640625v17.355469h-86.78125c-4.792968 0-8.675781-3.886719-8.675781-8.679688 0-4.792968 3.882813-8.675781 8.675781-8.675781zm0 0" fill="#c03a2b"/><path d="m165.320312 69.300781c23.964844 0 43.390626 19.425781 43.390626 43.390625 0 4.792969-3.886719 8.675782-8.679688 8.675782h-69.421875c-4.792969 0-8.679687-3.882813-8.679687-8.675782 0-23.964844 19.425781-43.390625 43.390624-43.390625zm0 0" fill="#bdc3c7"/></svg>