<svg height="512pt" viewBox="0 0 512 512" width="512pt" xmlns="http://www.w3.org/2000/svg"><path d="m482 451v46c0 8.285156 6.714844 15 15 15s15-6.714844 15-15v-46l-15-30zm0 0" fill="#523522"/><path d="m512 391v60h-497v-120h166l105 19.199219zm0 0" fill="#e0f4ff"/><path d="m226 181h-60c-6.0625 0-11.542969-3.648438-13.855469-9.257812-2.332031-5.609376-1.042969-12.054688 3.25-16.347657l34.394531-34.394531h-23.789062c-8.289062 0-15-6.710938-15-15s6.710938-15 15-15h60c6.0625 0 11.542969 3.648438 13.855469 9.257812 2.332031 5.609376 1.042969 12.054688-3.25 16.347657l-34.394531 34.394531h23.789062c8.289062 0 15 6.710938 15 15s-6.710938 15-15 15zm0 0" fill="#25d9f8"/><path d="m346 91h-60c-6.0625 0-11.542969-3.648438-13.855469-9.257812-2.332031-5.609376-1.042969-12.054688 3.25-16.347657l34.394531-35.394531h-23.789062c-8.289062 0-15-6.710938-15-15s6.710938-15 15-15h60c6.0625 0 11.542969 3.648438 13.855469 9.257812 2.332031 5.609376 1.042969 12.054688-3.25 16.347657l-34.394531 35.394531h23.789062c8.289062 0 15 6.710938 15 15s-6.710938 15-15 15zm0 0" fill="#00c0f1"/><path d="m136 331c-24.851562 0-45-20.148438-45-45s20.148438-45 45-45 45 20.148438 45 45-20.148438 45-45 45zm0 0" fill="#ffcebf"/><path d="m15 512c-8.289062 0-15-6.710938-15-15v-331c0-8.289062 6.710938-15 15-15s15 6.710938 15 15v331c0 8.289062-6.710938 15-15 15zm0 0" fill="#714c2f"/><path d="m512 391v60h-226v-100.800781zm0 0" fill="#bbdcff"/><path d="m512 286v105h-316c-8.402344 0-15-6.601562-15-15v-90c0-24.902344 20.097656-45 45-45h241c24.902344 0 45 20.097656 45 45zm0 0" fill="#ff7cb9"/><path d="m512 286v105h-226v-150h181c24.902344 0 45 20.097656 45 45zm0 0" fill="#fa5e97"/></svg>