<svg id="Layer_1" height="512" viewBox="0 0 512 512" width="512" xmlns="http://www.w3.org/2000/svg" data-name="Layer 1"><path d="m439.18 307.08a35.3 35.3 0 0 1 23.9-7.81c17.7.82 32.07 14.98 32.88 32.39a34.213 34.213 0 0 1 -30.36 35.4 2.756 2.756 0 0 0 -2.43 2.74v113.03a6.724 6.724 0 0 1 -6.73 6.72h-23.06a6.722 6.722 0 0 1 -6.72-6.72l-.02-29.69-.02-22.62-.03-55.07-.03-39.23c-.04-.41-.05-.86-.05-1.31 0-.57.02-1.14.02-1.67a33.614 33.614 0 0 1 12.65-26.16z" fill="#6fe3ff"/><path d="m312.68 362.85a322.76 322.76 0 0 0 -69.95 12.71h-.01l.03-39.34c.04-.41.05-.86.05-1.31 0-.57-.02-1.14-.02-1.67a33.614 33.614 0 0 0 -12.65-26.16v-47.01a13.792 13.792 0 0 1 13.74-13.84h181.57a13.792 13.792 0 0 1 13.74 13.84v47.01a33.614 33.614 0 0 0 -12.65 26.16c0 .53-.02 1.1-.02 1.67 0 .45.01.9.05 1.31l.03 39.23a320.4 320.4 0 0 0 -113.91-12.6z" fill="#e48e66"/><path d="m426.62 430.52.02 22.62h-.12-183.85l.02-22.62z" fill="#e48e66"/><path d="m422.81 51.9v132.8h-1.09v-.28l-41.2-38.59-37.25 31.38-43.1-45.86-36.24 35.84v-4.86a46.663 46.663 0 0 0 -11.43-30.67l.36-.33v-79.43z" fill="#f8ec7d"/><path d="m421.72 184.42v.28h-71.68v-.28l-6.77-7.21 37.25-31.38z" fill="#e48e66"/><g fill="#6fe3ff"><path d="m350.04 184.42v.28h-97.18v-11.51-1.01h11.07v-4.99l36.24-35.84 43.1 45.86z"/><path d="m230.13 307.08a33.614 33.614 0 0 1 12.65 26.16c0 .53.02 1.1.02 1.67 0 .45-.01.9-.05 1.31l-.03 39.34-.03 54.96-.02 22.62-.02 29.69a6.722 6.722 0 0 1 -6.72 6.72h-23.06a6.722 6.722 0 0 1 -6.72-6.72v-113.03a2.765 2.765 0 0 0 -2.44-2.74 34.213 34.213 0 0 1 -30.36-35.4c.81-17.41 15.19-31.57 32.89-32.39a35.278 35.278 0 0 1 23.89 7.81z"/><path d="m201.51 172.18h32.51c-.13 9.32-7.35 16.83-16.25 16.83s-16.12-7.51-16.26-16.83z"/><path d="m312.681 368.875a5.967 5.967 0 0 1 -5.321-3.25l-.12-.243-17.14-36.81a6 6 0 1 1 10.878-5.064l17.127 36.782a6.009 6.009 0 0 1 -5.425 8.585z"/><path d="m360.11 368.892a6.006 6.006 0 0 1 -5.639-8.05l13.659-37.61a6 6 0 0 1 11.279 4.1l-13.659 37.61a6 6 0 0 1 -5.64 3.95z"/><path d="m128.32 16.45c-51.88 0-94.108 44.1-94.335 98.393-.005.1-.015.21-.015.317v368.39h-17.97a6 6 0 0 0 0 12h54.2a6 6 0 0 0 0-12h-24.23v-368.057c0-.071.01-.141.01-.213 0-47.878 36.938-86.83 82.34-86.83s82.34 38.952 82.34 86.83a6 6 0 0 0 12 0c0-54.495-42.32-98.83-94.34-98.83z"/></g><path d="m312.68 362.85a320.4 320.4 0 0 1 113.91 12.6l.03 55.07h-183.93l.03-54.96h.01a322.76 322.76 0 0 1 69.95-12.71z" fill="#f8ec7d"/><path d="m263.93 167.19v4.99h-94.53v-9.85a46.864 46.864 0 0 1 46.87-46.87h.79a46.874 46.874 0 0 1 46.87 46.87z" fill="#e48e66"/><path d="m191.134 157.021a6 6 0 0 1 -5.02-9.279 53.209 53.209 0 0 1 13.868-14.408 6 6 0 1 1 6.936 9.793 41.239 41.239 0 0 0 -10.753 11.17 5.992 5.992 0 0 1 -5.031 2.724z" fill="#f8ec7d"/><path d="m340.65 95.43a15.125 15.125 0 1 1 -15.13 15.12 15.121 15.121 0 0 1 15.13-15.12z" fill="#6fe3ff"/></svg>