<svg width="48" height="48" viewBox="0 0 48 48" fill="none" xmlns="http://www.w3.org/2000/svg">
<path d="M12 20.25H4.5C3.25736 20.25 2.25 21.2574 2.25 22.5V42C2.25 43.2426 3.25736 44.25 4.5 44.25H12C13.2426 44.25 14.25 43.2426 14.25 42V22.5C14.25 21.2574 13.2426 20.25 12 20.25Z" fill="#F35244"/>
<path d="M14.25 22.7944V42C14.2499 42.5967 14.0128 43.1689 13.5908 43.5908C13.1689 44.0128 12.5967 44.2498 12 44.25H4.5C3.90331 44.2498 3.3311 44.0128 2.90917 43.5908C2.48725 43.1689 2.25015 42.5967 2.25 42V41.3512C6.6 37.9247 11.4778 32.1891 14.25 22.7944Z" fill="#EA4A3B"/>
<path d="M7.5 20.25H9V44.25H7.5V20.25Z" fill="#CF3B2E"/>
<path d="M7.5 14.25H9V20.25H7.5V14.25Z" fill="#E0E0DE"/>
<path d="M8.25 15C9.07843 15 9.75 14.3284 9.75 13.5C9.75 12.6716 9.07843 12 8.25 12C7.42157 12 6.75 12.6716 6.75 13.5C6.75 14.3284 7.42157 15 8.25 15Z" fill="#4D5E78"/>
<path d="M5.25 42C5.25 41.1716 4.57843 40.5 3.75 40.5C2.92157 40.5 2.25 41.1716 2.25 42V44.25C2.25 45.0784 2.92157 45.75 3.75 45.75C4.57843 45.75 5.25 45.0784 5.25 44.25V42Z" fill="#4D5E78"/>
<path d="M14.25 42C14.25 41.1716 13.5784 40.5 12.75 40.5C11.9216 40.5 11.25 41.1716 11.25 42V44.25C11.25 45.0784 11.9216 45.75 12.75 45.75C13.5784 45.75 14.25 45.0784 14.25 44.25V42Z" fill="#4D5E78"/>
<path d="M4.5 22.5H6V24H4.5V22.5Z" fill="#FC685B"/>
<path d="M4.5 25.5H6V31.5H4.5V25.5Z" fill="#FC685B"/>
<path d="M33.75 1.5H35.25V7.5H33.75V1.5Z" fill="#4D5E78"/>
<path d="M42.75 1.5H44.25V7.5H42.75V1.5Z" fill="#4D5E78"/>
<path d="M39 17.25C42.7279 17.25 45.75 14.2279 45.75 10.5C45.75 6.77208 42.7279 3.75 39 3.75C35.2721 3.75 32.25 6.77208 32.25 10.5C32.25 14.2279 35.2721 17.25 39 17.25Z" fill="#F35244"/>
<path d="M39 15.75C41.8995 15.75 44.25 13.3995 44.25 10.5C44.25 7.60051 41.8995 5.25 39 5.25C36.1005 5.25 33.75 7.60051 33.75 10.5C33.75 13.3995 36.1005 15.75 39 15.75Z" fill="#D6D6D4"/>
<path d="M39 14.25C41.0711 14.25 42.75 12.5711 42.75 10.5C42.75 8.42893 41.0711 6.75 39 6.75C36.9289 6.75 35.25 8.42893 35.25 10.5C35.25 12.5711 36.9289 14.25 39 14.25Z" fill="#E0E0DE"/>
<path d="M39 11.25C38.8377 11.2502 38.6797 11.1975 38.55 11.1L35.55 8.85L36.45 7.65L38.9853 9.55134L42.2812 6.91444L43.2187 8.08556L39.4687 11.0856C39.3358 11.1922 39.1704 11.2502 39 11.25Z" fill="#4D5E78"/>
<path d="M32.325 30.75H28.8629C28.6965 30.75 28.5325 30.7105 28.3844 30.6346C28.2363 30.5588 28.1083 30.4489 28.011 30.3139C27.9138 30.179 27.85 30.0228 27.8249 29.8583C27.7998 29.6939 27.8141 29.5258 27.8668 29.3679L30.0642 22.7756C30.1637 22.477 30.3547 22.2172 30.6101 22.0331C30.8655 21.849 31.1724 21.75 31.4872 21.75H34.9492C35.1156 21.75 35.2796 21.7895 35.4277 21.8653C35.5758 21.9411 35.7038 22.0511 35.8011 22.186C35.8983 22.321 35.9622 22.4772 35.9873 22.6417C36.0124 22.8061 35.998 22.9742 35.9454 23.1321L33.7479 29.7244C33.6483 30.023 33.4574 30.2828 33.202 30.4668C32.9466 30.6509 32.6398 30.75 32.325 30.75Z" fill="#4DB7E5"/>
<path d="M27.8791 30.0549C27.9512 30.2582 28.0845 30.4341 28.2607 30.5585C28.4368 30.683 28.6471 30.7499 28.8628 30.75H32.325C32.6398 30.75 32.9467 30.651 33.2021 30.4669C33.4575 30.2828 33.6486 30.0231 33.7481 29.7244L35.9455 23.1321C36.0166 22.9163 36.0146 22.6831 35.9398 22.4686L27.8791 30.0549Z" fill="#48ADD9"/>
<path d="M20.25 28.5L21 31.5L16.5 33C16.5 33 14.25 27 14.25 23.25V20.25H22.5L24 24.75L22.5 25.125V26.25C22.5 26.8467 22.2629 27.419 21.841 27.841C21.419 28.2629 20.8467 28.5 20.25 28.5Z" fill="#FEC9A3"/>
<path d="M22.5 16.5H18C17.0054 16.5 16.0516 16.8951 15.3483 17.5983C14.6451 18.3016 14.25 19.2554 14.25 20.25V24L17.25 20.25H22.5C22.9973 20.25 23.4742 20.0525 23.8258 19.7008C24.1775 19.3492 24.375 18.8723 24.375 18.375C24.375 17.8777 24.1775 17.4008 23.8258 17.0492C23.4742 16.6975 22.9973 16.5 22.5 16.5Z" fill="#FFB531"/>
<path d="M18.75 22.5H20.25V24H18.75V22.5Z" fill="#92563A"/>
<path d="M25.2187 31.6767C24.4769 30.605 23.3433 29.8681 22.0628 29.6249C20.7823 29.3817 19.4575 29.6517 18.3744 30.3768C17.2913 31.1018 16.5367 32.2237 16.2735 33.5003C16.0104 34.7768 16.2597 36.1057 16.9678 37.2L20.3315 42.3983C20.9188 43.305 21.6992 44.0707 22.6168 44.6408C23.5345 45.2109 24.5667 45.5712 25.6398 45.696L29.25 37.5L25.2187 31.6767Z" fill="#FFB531"/>
<path d="M45.0974 43.0649L43.5 42H38.6785L39.75 45.75H44.2844C44.5989 45.75 44.9051 45.6487 45.1577 45.4613C45.4103 45.2738 45.5959 45.0101 45.687 44.7091C45.7782 44.408 45.77 44.0856 45.6639 43.7896C45.5577 43.4935 45.3591 43.2394 45.0974 43.0649Z" fill="#4D5E78"/>
<path d="M41.3837 33.0056C41.1322 31.9368 40.5271 30.9844 39.6663 30.3027C38.8056 29.6209 37.7398 29.25 36.6419 29.25C35.7667 29.25 34.9077 29.4857 34.1552 29.9325C33.4026 30.3792 32.7843 31.0204 32.3653 31.7887L29.2501 37.5L25.6398 45.6962C27.0691 45.871 28.5181 45.6182 29.8037 44.9698C31.0893 44.3213 32.1538 43.3062 32.8627 42.0529L36.7501 35.25L38.6786 42H43.5001L41.3837 33.0056Z" fill="#92563A"/>
<path d="M21.0441 31.5441C20.6425 31.142 20.1 30.9124 19.5318 30.9039C18.9636 30.8953 18.4145 31.1087 18.0011 31.4985C17.5876 31.8883 17.3425 32.424 17.3176 32.9917C17.2927 33.5594 17.4901 34.1144 17.8679 34.5389L20.0294 36.9706L23.25 33.75L21.0441 31.5441Z" fill="#FFB531"/>
<path d="M28.9072 29.7536L25.5 36L23.25 33.75L20.0294 36.9706L20.7065 37.7323C21.4111 38.5249 22.296 39.1587 23.3079 39.4761C24.5853 39.887 25.9663 39.8377 27.2112 39.3369C28.4562 38.836 29.4865 37.9152 30.1235 36.7341L32.7584 31.8403C33.0255 31.3443 33.0912 30.7645 32.9419 30.2213C32.7926 29.6782 32.4398 29.2134 31.9568 28.9236C31.7036 28.7717 31.4223 28.6727 31.1299 28.6323C30.8375 28.5919 30.5399 28.611 30.255 28.6886C29.9702 28.7661 29.7039 28.9004 29.4723 29.0834C29.2407 29.2665 29.0485 29.4944 28.9072 29.7536Z" fill="#FEC9A3"/>
<path d="M20.25 27.75H18C17.5858 27.75 17.25 28.0858 17.25 28.5C17.25 28.9142 17.5858 29.25 18 29.25H20.25C20.6642 29.25 21 28.9142 21 28.5C21 28.0858 20.6642 27.75 20.25 27.75Z" fill="#F7A468"/>
<path d="M15.75 21.75C15.3522 21.75 14.9706 21.908 14.6893 22.1893C14.408 22.4706 14.25 22.8522 14.25 23.25C14.25 23.6478 14.408 24.0294 14.6893 24.3107C14.9706 24.592 15.3522 24.75 15.75 24.75H16.5V21.75H15.75Z" fill="#FEC9A3"/>
</svg>
