<svg width="47" height="47" viewBox="0 0 47 47" fill="none" xmlns="http://www.w3.org/2000/svg">
<g clip-path="url(#clip0)">
<path d="M11.295 8.12126H5.78311C5.37544 8.12126 5.04488 8.45182 5.04488 8.85949V12.7966C5.04488 13.2042 5.37544 13.5348 5.78311 13.5348H11.295C11.7027 13.5348 12.0333 13.2042 12.0333 12.7966V8.85949C12.0333 8.45172 11.7027 8.12126 11.295 8.12126Z" fill="#9BAAAB"/>
<path d="M31.3159 12.6814L30.1348 5.20102C30.078 4.84228 29.7688 4.57799 29.4056 4.57799H17.5944C17.2312 4.57799 16.9218 4.84228 16.8653 5.20102L15.6841 12.6814C15.6504 12.8948 15.7117 13.112 15.852 13.2761C15.9923 13.4401 16.1973 13.5348 16.4133 13.5348H30.5868C30.8026 13.5348 31.0077 13.4403 31.148 13.2761C31.2883 13.112 31.3496 12.8947 31.3159 12.6814Z" fill="#9BAAAB"/>
<path d="M17.5944 4.5779C17.2312 4.5779 16.9218 4.84219 16.8653 5.20093L15.6841 12.6813C15.6504 12.8947 15.7117 13.1119 15.852 13.276C15.9923 13.44 16.1973 13.5347 16.4133 13.5347H23.5V4.5779H17.5944Z" fill="#687F82"/>
<path d="M45.9414 12.0584H1.0586C0.650933 12.0584 0.320374 12.389 0.320374 12.7966V46.2619C0.320374 46.6695 0.650933 47.0001 1.0586 47.0001H45.9413C46.349 47.0001 46.6795 46.6695 46.6795 46.2619V12.7966C46.6795 12.3888 46.3491 12.0584 45.9414 12.0584Z" fill="#FD6A33"/>
<path d="M1.0586 12.0584C0.650933 12.0584 0.320374 12.389 0.320374 12.7966V46.2619C0.320374 46.6695 0.650933 47.0001 1.0586 47.0001H23.5V12.0584H1.0586Z" fill="#F0353D"/>
<path d="M45.9414 12.0584H1.0586C0.650933 12.0584 0.320374 12.389 0.320374 12.7966V21.8027H46.6795V12.7966C46.6795 12.3888 46.3491 12.0584 45.9414 12.0584Z" fill="#FFBA7E"/>
<path d="M1.0586 12.0584C0.650933 12.0584 0.320374 12.389 0.320374 12.7966V21.8027H23.5V12.0584H1.0586Z" fill="#FF8C29"/>
<path d="M14.4447 34.8935C12.5179 34.8935 10.9505 36.4609 10.9505 38.3876C10.9505 40.3144 12.5179 41.8818 14.4447 41.8818C16.3714 41.8818 17.9388 40.3144 17.9388 38.3876C17.9388 36.4609 16.3713 34.8935 14.4447 34.8935Z" fill="#CDD4D5"/>
<path d="M23.4999 17.5703C16.7972 17.5703 11.3442 23.0233 11.3442 29.726C11.3442 36.4286 16.7973 41.8817 23.4999 41.8817C30.2026 41.8817 35.6557 36.4286 35.6557 29.726C35.6557 23.0233 30.2027 17.5703 23.4999 17.5703Z" fill="#4ACFD9"/>
<path d="M11.3442 29.7261C11.3442 36.4288 16.7973 41.8818 23.4999 41.8818V17.5703C16.7973 17.5703 11.3442 23.0233 11.3442 29.7261Z" fill="#0295AA"/>
<path d="M23.5 21.5074C18.9681 21.5074 15.2813 25.1943 15.2813 29.7261C15.2813 34.2578 18.9682 37.9447 23.5 37.9447C28.0317 37.9447 31.7186 34.2578 31.7186 29.7261C31.7186 25.1943 28.0318 21.5074 23.5 21.5074Z" fill="#9BAAAB"/>
<path d="M15.2813 29.7261C15.2813 34.2579 18.9682 37.9447 23.5 37.9447V21.5074C18.9682 21.5074 15.2813 25.1942 15.2813 29.7261Z" fill="#365558"/>
<path d="M23.5 34.9919C23.0923 34.9919 22.7617 34.6613 22.7617 34.2537C22.7617 33.846 23.0923 33.5154 23.5 33.5154C24.5325 33.5154 25.4983 33.1057 26.2195 32.3617C26.5033 32.069 26.9706 32.0618 27.2633 32.3456C27.5561 32.6293 27.5632 33.0967 27.2795 33.3894C26.2778 34.4228 24.9356 34.9919 23.5 34.9919Z" fill="white"/>
<path d="M27.8719 31.6455C27.8081 31.6455 27.7433 31.6372 27.6787 31.6197C27.2851 31.5133 27.0524 31.1079 27.1588 30.7144C27.2454 30.394 27.2894 30.0614 27.2894 29.726C27.2894 27.6365 25.5895 25.9365 23.5 25.9365C23.0923 25.9365 22.7617 25.606 22.7617 25.1983C22.7617 24.7906 23.0923 24.4601 23.5 24.4601C26.4036 24.4601 28.7658 26.8223 28.7658 29.7259C28.7658 30.1915 28.7046 30.6537 28.5839 31.0998C28.495 31.4289 28.197 31.6455 27.8719 31.6455Z" fill="white"/>
<path d="M18.717 10.8281L19.2765 7.28462H27.7235L28.2829 10.8281H18.717Z" fill="white"/>
<path d="M41.6105 43.0629C41.2029 43.0629 40.8723 42.7324 40.8723 42.3247V24.6079C40.8723 24.2002 41.2029 23.8696 41.6105 23.8696C42.0182 23.8696 42.3488 24.2002 42.3488 24.6079V42.3247C42.3488 42.7324 42.0183 43.0629 41.6105 43.0629Z" fill="white"/>
<path d="M41.6105 19.0467C41.2029 19.0467 40.8723 18.7162 40.8723 18.3085V15.1588C40.8723 14.7512 41.2029 14.4206 41.6105 14.4206C42.0182 14.4206 42.3488 14.7512 42.3488 15.1588V18.3085C42.3488 18.7162 42.0183 19.0467 41.6105 19.0467Z" fill="white"/>
<path d="M36.4726 5.9308H33.4103C33.0027 5.9308 32.6721 5.60024 32.6721 5.19257C32.6721 4.7849 33.0027 4.45434 33.4103 4.45434H36.4726C36.8802 4.45434 37.2108 4.7849 37.2108 5.19257C37.2108 5.60024 36.8802 5.9308 36.4726 5.9308Z" fill="#F0353D"/>
<path d="M34.504 10.3851C34.3151 10.3851 34.1262 10.3131 33.982 10.1689L32.0333 8.22012C31.7449 7.93178 31.7449 7.46435 32.0333 7.1762C32.3216 6.88787 32.789 6.88787 33.0772 7.1762L35.0259 9.12496C35.3143 9.41329 35.3143 9.88072 35.0259 10.1689C34.8818 10.313 34.6929 10.3851 34.504 10.3851Z" fill="#F0353D"/>
<path d="M32.5759 3.42521C32.3869 3.42521 32.1981 3.35315 32.0539 3.20894C31.7656 2.9206 31.7656 2.45317 32.0539 2.16493L34.0027 0.21618C34.291 -0.0721538 34.7585 -0.0721538 35.0466 0.21618C35.3349 0.504513 35.3349 0.971942 35.0466 1.26018L33.0979 3.20894C32.9537 3.35306 32.7648 3.42521 32.5759 3.42521Z" fill="#F0353D"/>
</g>
<defs>
<clipPath id="clip0">
<rect width="47" height="47" fill="white"/>
</clipPath>
</defs>
</svg>
