<svg width="45" height="45" viewBox="0 0 45 45" fill="none" xmlns="http://www.w3.org/2000/svg">
<g clip-path="url(#clip0)">
<path d="M44.9895 41.8083L41.4542 22.3308C41.4189 22.1364 41.2983 21.968 41.1255 21.8719L32.2273 16.9228C32.1118 16.8584 31.9823 16.8328 31.8552 16.8427L33.474 37.7262L33.4198 37.7505L44.069 42.528C44.1557 42.5667 44.2478 42.5859 44.3394 42.5859C44.4845 42.5859 44.6283 42.5382 44.7465 42.4456C44.9397 42.2948 45.0332 42.0494 44.9895 41.8083Z" fill="#44C868"/>
<path d="M22.5001 21.6541L13.3994 16.9141C13.2903 16.8572 13.1694 16.834 13.0503 16.842C13.0819 16.8401 13.1136 16.8402 13.145 16.8427L11.5262 37.7262L22.2296 42.5281C22.316 42.5667 22.4082 42.586 22.5001 42.586V21.6541Z" fill="#44C868"/>
<path d="M13.1449 16.8428C13.0178 16.8329 12.8883 16.8585 12.7728 16.9228L3.87448 21.8719C3.70169 21.968 3.5811 22.1363 3.54586 22.3308L0.010624 41.8083C-0.0331456 42.0493 0.0603702 42.2947 0.253466 42.4457C0.371855 42.5383 0.515557 42.586 0.660577 42.586C0.752247 42.586 0.844444 42.5669 0.931017 42.5281L11.5222 37.7766L13.1449 16.8428Z" fill="#4CE166"/>
<path d="M31.855 16.8423C31.7675 16.8491 31.6809 16.8724 31.6007 16.9142L22.5 21.6542V42.5861C22.5 42.5861 22.5 42.5861 22.5001 42.5861C22.592 42.5861 22.6842 42.5669 22.7706 42.5282L33.474 37.7263L31.855 16.8423Z" fill="#4CE166"/>
<path d="M2.47447 28.2334L1.75632 32.1902L12.3906 26.5734L12.6375 23.3884L12.6784 22.8601L2.47447 28.2334Z" fill="#FFDB56"/>
<path d="M12.4863 25.3384L12.3906 26.5734L1.75631 32.1902L0.010624 41.8083C-0.0331456 42.0493 0.0603702 42.2947 0.253466 42.4457C0.371855 42.5383 0.515557 42.586 0.660577 42.586C0.752247 42.586 0.844444 42.5669 0.931017 42.5281L11.5222 37.7766L12.4863 25.3384Z" fill="#A8EEFC"/>
<path d="M22.5027 24.2649L12.6784 22.8601L12.3906 26.5734L22.5001 41.9261V36.3435L16.4675 26.8444L22.5027 27.5662V24.2649Z" fill="#FFBB24"/>
<path d="M40.4251 21.4824L36.1505 19.1048L32.1038 20.0504L32.1544 20.7039L32.3543 23.2821L40.4251 21.4824Z" fill="#FFBB24"/>
<path d="M32.7131 27.912L32.3299 22.9682L32.1038 20.0504L22.5027 24.2649V27.5662L28.7742 24.839L32.7131 27.912Z" fill="#FFDB56"/>
<path d="M44.9895 41.8083L44.1015 36.9158L32.3543 23.2821L32.7132 27.912L44.7604 42.4334C44.9436 42.2816 45.0321 42.0433 44.9895 41.8083Z" fill="#FFBB24"/>
<path d="M22.5423 2.41392C17.4479 2.41392 13.3033 6.55516 13.3033 11.6454C13.3033 14.7942 14.7982 18.1748 17.7467 21.6933C19.9122 24.2775 22.0483 25.9396 22.1382 26.0092C22.2572 26.1012 22.3998 26.1472 22.5424 26.1472C22.685 26.1472 22.8276 26.1012 22.9466 26.0092C23.0365 25.9396 25.1726 24.2775 27.3382 21.6933C30.2867 18.1748 31.7816 14.7943 31.7816 11.6454C31.7814 6.55516 27.6367 2.41392 22.5423 2.41392ZM25.9639 11.6454C25.9639 13.5334 24.432 15.0641 22.5423 15.0641C20.6527 15.0641 19.1207 13.5335 19.1207 11.6454C19.1207 9.7572 20.6527 8.22658 22.5423 8.22658C24.432 8.22658 25.9639 9.75728 25.9639 11.6454Z" fill="#FF4A4A"/>
<path d="M22.5423 2.41392C22.1386 2.41392 21.7409 2.44011 21.3506 2.49056C25.8843 3.07653 29.3981 6.95858 29.3981 11.6454C29.3981 14.7942 27.9031 18.1748 24.9547 21.6933C23.562 23.3551 22.1826 24.6347 21.3507 25.3556C21.8125 25.7557 22.1062 25.9844 22.1382 26.0092C22.2572 26.1012 22.3998 26.1472 22.5424 26.1472C22.685 26.1472 22.8276 26.1012 22.9466 26.0092C23.0364 25.9396 25.1726 24.2775 27.3382 21.6933C30.2866 18.1748 31.7816 14.7943 31.7816 11.6454C31.7814 6.55516 27.6367 2.41392 22.5423 2.41392Z" fill="#E7343F"/>
<path d="M22.7706 42.5281L26.7507 40.7425L22.5001 36.3435V42.586C22.5001 42.586 22.5001 42.586 22.5001 42.586C22.592 42.586 22.6842 42.5669 22.7706 42.5281Z" fill="#FFDB56"/>
<path d="M41.454 22.3308C41.4188 22.1364 41.2982 21.968 41.1254 21.8719L40.4249 21.4823L32.3542 23.282L44.1013 36.9157L41.454 22.3308Z" fill="#1EA4E9"/>
<path d="M22.5 42.586C22.5 42.586 22.5 42.586 22.5 42.586V41.9261L12.3906 26.5734L11.526 37.7263L22.2294 42.5282C22.3158 42.5669 22.408 42.586 22.5 42.586Z" fill="#1EA4E9"/>
</g>
<defs>
<clipPath id="clip0">
<rect width="45" height="45" fill="white"/>
</clipPath>
</defs>
</svg>
